<svg width="32" height="32" viewBox="0 0 32 32" fill="none" xmlns="http://www.w3.org/2000/svg">
<path d="M25 15.1333C24.6464 15.1302 24.2938 15.0945 23.9467 15.0267C23.613 14.9566 23.2869 14.8539 22.9733 14.72L22.7467 14.6667H22.5867C22.4533 14.6667 22.3867 14.76 22.3867 14.9467V15.3867C22.3678 15.4701 22.3678 15.5566 22.3867 15.64C22.4536 15.7497 22.5509 15.8376 22.6667 15.8933C22.9874 16.0538 23.3282 16.1704 23.68 16.24C24.1168 16.3444 24.5642 16.3981 25.0133 16.4C25.4651 16.4136 25.916 16.3504 26.3467 16.2133C26.7025 16.12 27.0343 15.9518 27.32 15.72C27.59 15.5113 27.8127 15.2477 27.9733 14.9467C28.1262 14.6215 28.2037 14.266 28.2 13.9067C28.2048 13.4609 28.0644 13.0256 27.8 12.6667C27.4445 12.2627 26.9824 11.967 26.4667 11.8133L25.2 11.4133C24.8461 11.3217 24.5148 11.1584 24.2267 10.9333C24.1422 10.8523 24.075 10.755 24.0292 10.6473C23.9834 10.5396 23.9598 10.4237 23.96 10.3067C23.9505 10.1485 23.9838 9.99061 24.0566 9.8498C24.1293 9.70898 24.2388 9.59043 24.3733 9.50667C24.7423 9.3277 25.1505 9.24513 25.56 9.26667C26.1434 9.25251 26.7224 9.37104 27.2533 9.61334C27.3619 9.66867 27.4791 9.70476 27.6 9.72C27.7333 9.72 27.8 9.61334 27.8 9.42667V8.94667C27.804 8.84301 27.7761 8.74062 27.72 8.65333C27.6488 8.56258 27.5575 8.48956 27.4533 8.44C27.3344 8.37454 27.2094 8.32095 27.08 8.28C26.9141 8.22143 26.7449 8.17246 26.5733 8.13334L25.9867 8C25.7692 7.98429 25.5508 7.98429 25.3333 8C24.9592 7.99355 24.5862 8.04299 24.2267 8.14667C23.8901 8.24492 23.5739 8.403 23.2933 8.61334C23.0331 8.80326 22.8189 9.04935 22.6667 9.33334C22.5031 9.6361 22.4205 9.97594 22.4267 10.32C22.4187 10.8014 22.5738 11.2713 22.8667 11.6533C23.2328 12.0943 23.7265 12.4111 24.28 12.56L25.6133 12.96C25.9432 13.0371 26.2497 13.1926 26.5067 13.4133C26.6663 13.5823 26.7526 13.8076 26.7467 14.04C26.7495 14.2087 26.7079 14.3751 26.626 14.5226C26.5441 14.6701 26.4247 14.7933 26.28 14.88C25.8842 15.0791 25.4418 15.1667 25 15.1333ZM17.2533 8.66667C17.2328 8.53597 17.1722 8.41486 17.08 8.32C16.9803 8.24646 16.8565 8.21314 16.7333 8.22667H16C15.8774 8.21987 15.7559 8.25258 15.6533 8.32C15.5561 8.41124 15.4947 8.53416 15.48 8.66667L14.1467 14.5333L12.6267 8.66667C12.6024 8.53437 12.5371 8.41307 12.44 8.32C12.44 8.32 12.2667 8.22667 12.0933 8.22667H11.2267C11.08 8.22667 11.0133 8.30667 11.0133 8.45334C11.0263 8.57598 11.0531 8.69676 11.0933 8.81334L13.1733 15.6667C13.2004 15.7886 13.2551 15.9026 13.3333 16C13.4381 16.0611 13.559 16.089 13.68 16.08H14.44C14.5652 16.0885 14.6902 16.0607 14.8 16C14.884 15.8962 14.9392 15.772 14.96 15.64L16.2933 9.93334L17.6267 15.6533C17.6377 15.7841 17.6944 15.9068 17.7867 16C17.8916 16.0733 18.0194 16.1064 18.1467 16.0933H18.9067C19.025 16.0992 19.1419 16.0664 19.24 16C19.3403 15.9094 19.4062 15.7869 19.4267 15.6533L21.5733 8.8C21.5812 8.72911 21.5812 8.65757 21.5733 8.58667C21.5785 8.53792 21.5785 8.48875 21.5733 8.44C21.5778 8.4092 21.575 8.37777 21.5652 8.34823C21.5554 8.31869 21.5388 8.29185 21.5168 8.26984C21.4948 8.24783 21.468 8.23126 21.4384 8.22145C21.4089 8.21164 21.3775 8.20886 21.3467 8.21334H20.52C20.3976 8.20834 20.2767 8.2409 20.1733 8.30667C20.0912 8.40838 20.0321 8.52664 20 8.65333L18.6667 14.6667L17.2533 8.66667ZM7.69333 11.5067C7.3794 11.4655 7.06327 11.4432 6.74667 11.44C5.96197 11.3988 5.18919 11.6453 4.57333 12.1333C4.31107 12.3579 4.10292 12.6389 3.9644 12.9552C3.82587 13.2715 3.76056 13.6149 3.77333 13.96C3.75782 14.2742 3.8079 14.5883 3.92038 14.8821C4.03287 15.1759 4.20528 15.4431 4.42667 15.6667C4.66461 15.8863 4.94409 16.056 5.24864 16.1659C5.55319 16.2758 5.87667 16.3237 6.2 16.3067C6.70893 16.3213 7.21436 16.2182 7.6769 16.0054C8.13945 15.7927 8.54661 15.476 8.86667 15.08C8.9446 15.2587 9.03367 15.4324 9.13333 15.6C9.22825 15.7465 9.33529 15.8848 9.45333 16.0133C9.48558 16.046 9.52399 16.0719 9.56633 16.0896C9.60867 16.1073 9.65411 16.1164 9.7 16.1164C9.74589 16.1164 9.79133 16.1073 9.83367 16.0896C9.87601 16.0719 9.91442 16.046 9.94667 16.0133L10.5067 15.64C10.5534 15.6111 10.5932 15.5721 10.6232 15.5261C10.6531 15.48 10.6725 15.4278 10.68 15.3733C10.7016 15.3039 10.7016 15.2295 10.68 15.16C10.572 14.958 10.4784 14.7486 10.4 14.5333C10.3286 14.2729 10.2971 14.0032 10.3067 13.7333V10.92C10.3385 10.5249 10.29 10.1274 10.1639 9.75157C10.0379 9.37574 9.83698 9.02936 9.57333 8.73334C9.23448 8.44842 8.84063 8.23628 8.41627 8.11012C7.99191 7.98396 7.54613 7.94648 7.10667 8C6.65659 7.99983 6.2084 8.0581 5.77333 8.17334C5.38593 8.2634 5.01014 8.39761 4.65333 8.57334C4.55922 8.61491 4.4768 8.67902 4.41333 8.76C4.38075 8.85963 4.38075 8.96704 4.41333 9.06667V9.50667C4.41333 9.69334 4.41333 9.77334 4.6 9.77334C4.64833 9.7838 4.69834 9.7838 4.74667 9.77334L5.05333 9.66667C5.32417 9.53373 5.60504 9.42228 5.89333 9.33334C6.2073 9.25464 6.52966 9.21435 6.85333 9.21334C7.36876 9.15934 7.88501 9.30753 8.29333 9.62667C8.61085 10.0255 8.75926 10.5329 8.70667 11.04V11.6933L7.69333 11.5067ZM8.73333 12.7067V13.0667C8.73437 13.3273 8.70302 13.5871 8.64 13.84C8.58372 14.0523 8.47872 14.2487 8.33333 14.4133C8.11102 14.6747 7.82007 14.8686 7.49333 14.9733C7.20189 15.0759 6.8956 15.1299 6.58667 15.1333C6.41754 15.1459 6.24761 15.124 6.08719 15.069C5.92676 15.014 5.77916 14.927 5.65333 14.8133C5.53655 14.6868 5.4477 14.5372 5.39257 14.3741C5.33743 14.211 5.31725 14.0381 5.33333 13.8667C5.32232 13.6751 5.35638 13.4837 5.4328 13.3077C5.50922 13.1317 5.62585 12.9761 5.77333 12.8533C6.16192 12.5809 6.63378 12.4535 7.10667 12.4933H7.93333C8.2037 12.5498 8.47076 12.621 8.73333 12.7067ZM26.3467 20C23.1592 21.3411 19.7381 22.0389 16.28 22.0533C11.6514 22.0542 7.10226 20.8503 3.08 18.56C2.76 18.36 2.50667 18.6933 2.78667 18.9467C6.40707 22.2195 11.1196 24.0218 16 24C19.8487 24.0095 23.6115 22.8621 26.8 20.7067C27.2533 20.2933 26.84 19.7467 26.3467 20Z" fill="white"/>
<path d="M24.5067 18.7467C24.2533 18.9333 24.2933 19.1867 24.5733 19.1467C25.52 19.0267 27.6133 18.7867 27.9867 19.2667C28.36 19.7467 27.5733 21.7067 27.2133 22.5867C27.1067 22.8533 27.3467 22.96 27.5867 22.76C28.1938 22.2011 28.6591 21.5057 28.9443 20.7313C29.2295 19.957 29.3263 19.1258 29.2267 18.3067C28.4605 18.005 27.6341 17.8876 26.8142 17.964C25.9943 18.0404 25.2039 18.3085 24.5067 18.7467Z" fill="#CCCCCC"/>
</svg>
