<svg width="32" height="32" viewBox="0 0 32 32" fill="none" xmlns="http://www.w3.org/2000/svg">
<path d="M16 8.00001C13.8783 8.00001 11.8434 8.84287 10.3431 10.3432C8.84285 11.8434 8 13.8783 8 16H1.33333C1.33333 7.90001 7.9 1.33334 16 1.33334C24.1 1.33334 30.6667 7.90001 30.6667 16C30.6667 24.1 24.1 30.6667 16 30.6667V24C18.1217 24 20.1566 23.1572 21.6569 21.6569C23.1571 20.1566 24 18.1217 24 16C24 13.8783 23.1571 11.8434 21.6569 10.3432C20.1566 8.84287 18.1217 8.00001 16 8.00001Z" fill="white"/>
<path d="M9.33333 24V17.3333H16V24H9.33333ZM3.99999 24V29.3333H9.33333V24H3.99999ZM3.99999 24H1.33333V21.3333H3.99999V24Z" fill="white"/>
</svg>
