<svg width="32" height="32" viewBox="0 0 32 32" fill="none" xmlns="http://www.w3.org/2000/svg">
<path d="M10.6667 18.6283V13.3717L16 9.81332L21.3333 13.3717V18.6283L16 22.1867L10.6667 18.6283Z" fill="white"/>
<path fill-rule="evenodd" clip-rule="evenodd" d="M6.51306 2.72213C6.60173 2.54518 6.73789 2.39639 6.9063 2.2924C7.07471 2.18841 7.26873 2.13334 7.46666 2.13333H24.5333C24.7313 2.13334 24.9253 2.18841 25.0937 2.2924C25.2621 2.39639 25.3983 2.54518 25.4869 2.72213L31.8869 15.5221C31.9613 15.6705 32 15.8341 32 16C32 16.1659 31.9613 16.3295 31.8869 16.4779L25.4869 29.2779C25.3983 29.4548 25.2621 29.6036 25.0937 29.7076C24.9253 29.8116 24.7313 29.8667 24.5333 29.8667H7.46666C7.26873 29.8667 7.07471 29.8116 6.9063 29.7076C6.73789 29.6036 6.60173 29.4548 6.51306 29.2779L0.113061 16.4779C0.038733 16.3295 3.05176e-05 16.1659 3.05176e-05 16C3.05176e-05 15.8341 0.038733 15.6705 0.113061 15.5221L6.51306 2.72213ZM23.4667 12.2283L16 7.25333L8.53333 12.2283V19.7717L16 24.7467L23.4667 19.7717V12.2283Z" fill="white"/>
</svg>
