<svg width="32" height="32" viewBox="0 0 32 32" fill="none" xmlns="http://www.w3.org/2000/svg">
<path fill-rule="evenodd" clip-rule="evenodd" d="M11.556 1.66668C10.4 1.66582 9.2737 2.03298 8.34028 2.71498C7.40686 3.39698 6.71477 4.3584 6.36425 5.46001C6.01374 6.56161 6.02299 7.7462 6.39067 8.84219C6.75836 9.93818 7.46538 10.8887 8.40934 11.556C7.69862 12.0587 7.11901 12.7248 6.71923 13.4981C6.31946 14.2714 6.11121 15.1295 6.11201 16C6.11201 17.8347 7.02001 19.4587 8.41201 20.444C7.64944 20.9838 7.03862 21.7108 6.63833 22.555C6.23803 23.3991 6.06173 24.3322 6.12639 25.2642C6.19105 26.1962 6.49449 27.096 7.00752 27.8768C7.52054 28.6576 8.22589 29.2933 9.05569 29.7226C9.88549 30.1519 10.8118 30.3605 11.7455 30.3282C12.6793 30.2959 13.589 30.0238 14.3871 29.5382C15.1853 29.0525 15.845 28.3697 16.3029 27.5553C16.7607 26.7408 17.0012 25.8223 17.0013 24.888V20.216C17.5677 20.6749 18.2204 21.0153 18.9209 21.2171C19.6213 21.419 20.3551 21.4781 21.0788 21.391C21.8024 21.3039 22.5013 21.0724 23.1338 20.7101C23.7663 20.3479 24.3197 19.8623 24.761 19.2822C25.2023 18.7021 25.5227 18.0393 25.703 17.333C25.8834 16.6268 25.9201 15.8915 25.8109 15.1708C25.7018 14.4501 25.449 13.7587 25.0676 13.1375C24.6862 12.5163 24.184 11.9781 23.5907 11.5547C24.5346 10.8873 25.2417 9.93685 25.6093 8.84086C25.977 7.74486 25.9863 6.56028 25.6358 5.45867C25.2852 4.35707 24.5932 3.39565 23.6597 2.71365C22.7263 2.03165 21.6 1.66449 20.444 1.66535H11.5587L11.556 1.66668ZM15 19.444H11.556C11.1037 19.444 10.6559 19.3549 10.238 19.1819C9.8202 19.0088 9.44054 18.7551 9.12073 18.4353C8.80093 18.1155 8.54724 17.7358 8.37417 17.318C8.20109 16.9001 8.11201 16.4523 8.11201 16C8.11201 15.5477 8.20109 15.0999 8.37417 14.6821C8.54724 14.2642 8.80093 13.8845 9.12073 13.5647C9.44054 13.2449 9.8202 12.9912 10.238 12.8182C10.6559 12.6451 11.1037 12.556 11.556 12.556H15V19.444ZM11.556 10.556H15V3.66668H11.556C10.6424 3.66668 9.76626 4.0296 9.12026 4.6756C8.47426 5.3216 8.11134 6.19776 8.11134 7.11135C8.11134 8.02493 8.47426 8.90109 9.12026 9.54709C9.76626 10.1931 10.6424 10.556 11.556 10.556ZM23.8893 7.11068C23.8897 8.02362 23.5276 8.89936 22.8825 9.5454C22.2375 10.1915 21.3623 10.555 20.4493 10.556H17V3.66668H20.4453C20.8976 3.66668 21.3455 3.75576 21.7633 3.92884C22.1811 4.10192 22.5608 4.3556 22.8806 4.6754C23.2004 4.99521 23.4541 5.37487 23.6272 5.79272C23.8003 6.21056 23.8893 6.65841 23.8893 7.11068ZM17 15.996C17.0011 15.084 17.3638 14.2096 18.0087 13.5647C18.6536 12.9198 19.528 12.5571 20.44 12.556H20.448C21.1288 12.5568 21.7941 12.7594 22.3599 13.1381C22.9256 13.5168 23.3664 14.0548 23.6266 14.6839C23.8868 15.313 23.9547 16.0052 23.8216 16.6729C23.6886 17.3406 23.3607 17.9539 22.8793 18.4353C22.3979 18.9167 21.7846 19.2446 21.1169 19.3776C20.4492 19.5107 19.757 19.4428 19.1279 19.1826C18.4987 18.9224 17.9608 18.4816 17.5821 17.9159C17.2034 17.3501 17.0008 16.6848 17 16.004V15.996ZM11.556 21.444C10.8749 21.444 10.2091 21.646 9.64276 22.0243C9.07643 22.4027 8.635 22.9405 8.37429 23.5697C8.11359 24.199 8.04531 24.8914 8.17808 25.5594C8.31086 26.2274 8.63874 26.8411 9.12026 27.3228C9.60178 27.8045 10.2153 28.1326 10.8833 28.2657C11.5513 28.3987 12.2437 28.3307 12.873 28.0702C13.5024 27.8098 14.0403 27.3686 14.4189 26.8024C14.7975 26.2362 14.9997 25.5704 15 24.8893V21.444H11.556Z" fill="white"/>
</svg>
