<svg width="30" height="30" viewBox="0 0 30 30" fill="none" xmlns="http://www.w3.org/2000/svg">
<g clip-path="url(#clip0_6_168)">
<path d="M13.73 17.295C13.5646 17.295 13.4059 17.2293 13.2887 17.1125L12.3575 16.1838C12.2977 16.1262 12.25 16.0573 12.2172 15.9811C12.1843 15.9049 12.167 15.8229 12.1661 15.7399C12.1653 15.6569 12.181 15.5746 12.2123 15.4978C12.2436 15.4209 12.2899 15.3511 12.3485 15.2923C12.4071 15.2335 12.4768 15.187 12.5536 15.1555C12.6304 15.124 12.7126 15.108 12.7956 15.1086C12.8786 15.1092 12.9606 15.1263 13.0369 15.159C13.1132 15.1916 13.1823 15.2391 13.24 15.2987L13.73 15.7875L15.2063 14.3125C15.3234 14.1951 15.4825 14.1291 15.6483 14.129C15.8142 14.1289 15.9733 14.1947 16.0906 14.3119C16.208 14.4291 16.274 14.5881 16.2741 14.7539C16.2742 14.9198 16.2084 15.0789 16.0912 15.1962L14.1725 17.1125C14.0548 17.2292 13.8958 17.2948 13.73 17.295ZM25.4212 17.1112L27.3388 15.1962C27.4526 15.0784 27.5156 14.9205 27.5142 14.7566C27.5127 14.5928 27.447 14.436 27.3311 14.3201C27.2153 14.2042 27.0585 14.1385 26.8946 14.1371C26.7308 14.1357 26.5729 14.1987 26.455 14.3125L24.9788 15.7875L24.4888 15.2987C24.431 15.2391 24.362 15.1916 24.2857 15.159C24.2094 15.1263 24.1273 15.1092 24.0444 15.1086C23.9614 15.108 23.8791 15.124 23.8023 15.1555C23.7256 15.187 23.6559 15.2335 23.5973 15.2923C23.5387 15.3511 23.4924 15.4209 23.461 15.4978C23.4297 15.5746 23.414 15.6569 23.4149 15.7399C23.4157 15.8229 23.4331 15.9049 23.4659 15.9811C23.4988 16.0573 23.5465 16.1262 23.6063 16.1838L24.5387 17.1125C24.5966 17.1707 24.6654 17.2169 24.7412 17.2483C24.8169 17.2798 24.8982 17.2959 24.9803 17.2958C25.0623 17.2957 25.1435 17.2793 25.2192 17.2476C25.2949 17.216 25.3636 17.1696 25.4212 17.1112ZM5.65875 9.315L8.855 7.33375C9.03546 7.22209 9.18451 7.06632 9.28813 6.88113C9.39175 6.69594 9.44651 6.48741 9.44726 6.27521C9.44801 6.063 9.39473 5.85409 9.29242 5.66817C9.19012 5.48225 9.04216 5.32543 8.8625 5.2125L5.66625 3.2C5.47715 3.08088 5.25957 3.01463 5.03617 3.00817C4.81276 3.0017 4.59172 3.05525 4.39604 3.16323C4.20036 3.27122 4.03722 3.42969 3.9236 3.62215C3.80997 3.81461 3.75003 4.03401 3.75 4.2575V8.2525C3.75037 8.47511 3.81012 8.6936 3.92309 8.88541C4.03607 9.07723 4.19817 9.23544 4.39268 9.34371C4.58718 9.45198 4.80706 9.5064 5.02961 9.50135C5.25217 9.49631 5.46935 9.43198 5.65875 9.315ZM8.19625 6.27L5 8.2525V4.2575L8.19625 6.27ZM30 15.625C30 18.0375 28.0375 20 25.625 20C24.5741 19.998 23.5589 19.6181 22.7649 18.9296C21.9708 18.2411 21.4509 17.29 21.3 16.25H18.7C18.5491 17.29 18.0292 18.2411 17.2351 18.9296C16.4411 19.6181 15.4259 19.998 14.375 20C13.324 19.9982 12.3087 19.6184 11.5146 18.9299C10.7205 18.2414 10.2007 17.2902 10.05 16.25H9.3525C8.1375 16.25 7.04 15.7513 6.25 14.9475V21.25C6.25 23.3175 7.9325 25 10 25H10.05C10.355 22.8837 12.175 21.25 14.375 21.25C16.7875 21.25 18.75 23.2125 18.75 25.625C18.75 28.0375 16.7875 30 14.375 30C13.324 29.9982 12.3087 29.6184 11.5146 28.9299C10.7205 28.2414 10.2007 27.2902 10.05 26.25H10C7.2425 26.25 5 24.0075 5 21.25V12.3738C3.58937 12.0839 2.32181 11.3165 1.41101 10.201C0.500211 9.08552 0.00187144 7.6901 0 6.25C0 2.80375 2.80375 0 6.25 0C9.69625 0 12.5 2.80375 12.5 6.25C12.4978 7.89633 11.8467 9.47544 10.688 10.6449C9.52926 11.8144 7.95624 12.4801 6.31 12.4975C6.44894 13.2024 6.82822 13.8372 7.3831 14.2936C7.93797 14.75 8.63404 14.9997 9.3525 15H10.05C10.355 12.8837 12.175 11.25 14.375 11.25C15.426 11.2518 16.4413 11.6316 17.2354 12.3201C18.0295 13.0086 18.5493 13.9598 18.7 15H21.3C21.4509 13.96 21.9708 13.0089 22.7649 12.3204C23.5589 11.6319 24.5741 11.252 25.625 11.25C28.0375 11.25 30 13.2125 30 15.625ZM11.25 25.625C11.25 27.3475 12.6525 28.75 14.375 28.75C16.0975 28.75 17.5 27.3475 17.5 25.625C17.5 23.9025 16.0975 22.5 14.375 22.5C12.6525 22.5 11.25 23.9025 11.25 25.625ZM6.25 11.25C9.0075 11.25 11.25 9.0075 11.25 6.25C11.25 3.4925 9.0075 1.25 6.25 1.25C3.4925 1.25 1.25 3.4925 1.25 6.25C1.25 9.0075 3.4925 11.25 6.25 11.25ZM17.5 15.625C17.5 13.9025 16.0975 12.5 14.375 12.5C12.6525 12.5 11.25 13.9025 11.25 15.625C11.25 17.3475 12.6525 18.75 14.375 18.75C16.0975 18.75 17.5 17.3475 17.5 15.625ZM28.75 15.625C28.75 13.9025 27.3475 12.5 25.625 12.5C23.9025 12.5 22.5 13.9025 22.5 15.625C22.5 17.3475 23.9025 18.75 25.625 18.75C27.3475 18.75 28.75 17.3475 28.75 15.625ZM12.5 25.625C12.5 25.7908 12.5658 25.9497 12.6831 26.0669C12.8003 26.1842 12.9592 26.25 13.125 26.25C13.2908 26.25 13.4497 26.1842 13.5669 26.0669C13.6842 25.9497 13.75 25.7908 13.75 25.625C13.75 25.4592 13.6842 25.3003 13.5669 25.1831C13.4497 25.0658 13.2908 25 13.125 25C12.9592 25 12.8003 25.0658 12.6831 25.1831C12.5658 25.3003 12.5 25.4592 12.5 25.625ZM15 25.625C15 25.7908 15.0658 25.9497 15.1831 26.0669C15.3003 26.1842 15.4592 26.25 15.625 26.25C15.7908 26.25 15.9497 26.1842 16.0669 26.0669C16.1842 25.9497 16.25 25.7908 16.25 25.625C16.25 25.4592 16.1842 25.3003 16.0669 25.1831C15.9497 25.0658 15.7908 25 15.625 25C15.4592 25 15.3003 25.0658 15.1831 25.1831C15.0658 25.3003 15 25.4592 15 25.625ZM30 25.625C30 28.0375 28.0375 30 25.625 30C24.5737 29.9979 23.5582 29.6176 22.7641 28.9287C21.9701 28.2397 21.4504 27.288 21.3 26.2475C21.2913 26.2487 21.2837 26.2537 21.2737 26.2537L20.6413 26.275H20.62C20.4588 26.2709 20.3055 26.2046 20.192 26.09C20.0785 25.9754 20.0138 25.8214 20.0112 25.6602C20.0086 25.499 20.0684 25.343 20.1781 25.2249C20.2879 25.1067 20.439 25.0356 20.6 25.0262L21.2325 25.005C21.255 25.0025 21.2763 25.0125 21.2975 25.0138C21.4455 23.9708 21.9644 23.0161 22.7593 22.3248C23.5541 21.6335 24.5716 21.2519 25.625 21.25C28.0375 21.25 30 23.2125 30 25.625ZM28.75 25.625C28.75 23.9025 27.3475 22.5 25.625 22.5C23.9025 22.5 22.5 23.9025 22.5 25.625C22.5 27.3475 23.9025 28.75 25.625 28.75C27.3475 28.75 28.75 27.3475 28.75 25.625Z" fill="white"/>
</g>
<defs>
<clipPath id="clip0_6_168">
<rect width="30" height="30" fill="white"/>
</clipPath>
</defs>
</svg>
