<svg width="30" height="30" viewBox="0 0 30 30" fill="none" xmlns="http://www.w3.org/2000/svg">
<g clip-path="url(#clip0_6_158)">
<path d="M10.685 1.44501L8.54 3.59001V5.69251H10.685V1.44501ZM10.685 5.69251V5.73626H8.54V5.69251H4.2325L0 9.80501V14.2763H3.5325V11.175C3.5325 10.5188 4.06875 9.98251 4.725 9.98251H25.32C25.9763 9.98251 26.5125 10.52 26.5125 11.175V14.275H29.955V9.80501L25.7225 5.69251H21.625V5.73626H19.4788V5.69251H10.685ZM19.4788 5.69251H21.625V3.59001L19.4788 1.44501V5.69251ZM10.8488 1.48501V3.55001H19.315V1.48501H10.8488ZM25.1875 10.3225C25.1323 10.3223 25.0771 10.3265 25.0225 10.335L24.3438 10.3375C17.8238 10.355 11.3038 10.3275 4.78375 10.35C4.24 10.2713 3.79125 10.895 3.88875 11.4538V14.2838H26.1538C26.1338 13.1738 26.21 12.0563 26.1113 10.9513C25.9813 10.5238 25.5775 10.3225 25.1875 10.3225ZM5.91 11.115C6.13842 11.115 6.35748 11.2069 6.519 11.3706C6.68051 11.5342 6.77125 11.7561 6.77125 11.9875C6.77092 12.2187 6.68004 12.4403 6.51856 12.6037C6.35708 12.767 6.1382 12.8588 5.91 12.8588C5.68201 12.8584 5.46346 12.7665 5.30225 12.6032C5.14104 12.4399 5.05033 12.2185 5.05 11.9875C5.05 11.7563 5.14057 11.5346 5.30181 11.371C5.46306 11.2074 5.6818 11.1153 5.91 11.115ZM8.5775 11.115C8.80592 11.115 9.02498 11.2069 9.1865 11.3706C9.34801 11.5342 9.43875 11.7561 9.43875 11.9875C9.43842 12.2187 9.34754 12.4403 9.18606 12.6037C9.02458 12.767 8.8057 12.8588 8.5775 12.8588C8.34951 12.8584 8.13096 12.7665 7.96975 12.6032C7.80854 12.4399 7.71783 12.2185 7.7175 11.9875C7.7175 11.7563 7.80807 11.5346 7.96931 11.371C8.13056 11.2074 8.3493 11.1153 8.5775 11.115ZM0.045 14.5563V26.0013C0.045 27.3138 1.1175 28.3863 2.42875 28.3863H3.5325V14.5563H0.045ZM26.5125 14.5563V28.3863H27.615C28.9275 28.3863 30 27.3138 30 26.0013V14.5563H26.5125ZM5.07125 16.4163V24.9788H12.7425V16.4163H5.07125ZM21.625 16.4425V21.1638L19.49 22.385L17.355 21.1638V16.4663C16.5019 16.8736 15.7815 17.5142 15.2772 18.3139C14.7729 19.1135 14.5053 20.0396 14.5053 20.985C14.5053 21.9304 14.7729 22.8565 15.2772 23.6562C15.7815 24.4558 16.5019 25.0964 17.355 25.5038V28.555H21.6763V25.5025C22.5333 25.0929 23.2561 24.4479 23.7604 23.6429C24.2647 22.8379 24.5296 21.9061 24.5242 20.9563C24.5188 20.0064 24.2434 19.0776 23.73 18.2784C23.2167 17.4792 22.4866 16.8424 21.625 16.4425ZM5.07125 26.7675V28.555H14.9775V26.7675H5.07125Z" fill="white"/>
</g>
<defs>
<clipPath id="clip0_6_158">
<rect width="30" height="30" fill="white"/>
</clipPath>
</defs>
</svg>
