<svg width="32" height="32" viewBox="0 0 32 32" fill="none" xmlns="http://www.w3.org/2000/svg">
<path d="M16.0001 9.61884C14.738 9.61884 13.5042 9.99309 12.4548 10.6943C11.4054 11.3955 10.5875 12.3921 10.1046 13.5581C9.62159 14.7241 9.49521 16.0072 9.74144 17.245C9.98766 18.4828 10.5954 19.6199 11.4878 20.5123C12.3803 21.4047 13.5173 22.0125 14.7552 22.2587C15.993 22.5049 17.2761 22.3786 18.4421 21.8956C19.6081 21.4126 20.6047 20.5947 21.3059 19.5453C22.0071 18.4959 22.3813 17.2622 22.3813 16.0001C22.3792 14.3083 21.7062 12.6865 20.5099 11.4902C19.3137 10.294 17.6918 9.62099 16.0001 9.61884V9.61884Z" fill="white"/>
<path d="M25.1619 10.1857C26.7677 10.1857 28.0694 8.88393 28.0694 7.27817C28.0694 5.6724 26.7677 4.37067 25.1619 4.37067C23.5561 4.37067 22.2544 5.6724 22.2544 7.27817C22.2544 8.88393 23.5561 10.1857 25.1619 10.1857Z" fill="white"/>
<path d="M28.7413 10.2001L28.6194 9.93256L28.425 10.1526C27.9488 10.6933 27.3464 11.1081 26.6713 11.3601L26.4838 11.4288L26.56 11.6119C27.1411 13.0018 27.4394 14.4936 27.4375 16.0001C27.4375 22.3076 22.3063 27.4376 16 27.4376C9.69376 27.4376 4.56252 22.3076 4.56252 16.0001C4.56252 9.69256 9.69251 4.56256 16 4.56256C17.6963 4.55902 19.3716 4.9371 20.9019 5.66881L21.0813 5.75006L21.1594 5.56756C21.4443 4.90593 21.8878 4.32465 22.4506 3.87506L22.68 3.69193L22.4194 3.56256C20.437 2.53154 18.2345 1.99545 16 2.00006C8.28064 2.00006 2.00002 8.28068 2.00002 16.0001C2.00002 23.7194 8.28064 30.0001 16 30.0001C23.7194 30.0001 30 23.7194 30 16.0001C30.0033 13.9986 29.5739 12.0201 28.7413 10.2001V10.2001Z" fill="white"/>
</svg>
