<svg width="28" height="28" viewBox="0 0 28 28" fill="none" xmlns="http://www.w3.org/2000/svg">
<g clip-path="url(#clip0_79_87)">
<path d="M13.8119 18.4122H17.8172V27.125H13.8119V18.4122Z" fill="#C87D5E"/>
<path d="M17.8172 20.6129C17.4585 20.031 16.9838 19.5344 16.3844 19.2107C16.0125 19.0094 15.6013 18.8935 15.1835 18.8519H14.4856C14.2581 18.8738 14.0306 18.9176 13.8119 18.9832V23.3866C14.0066 23.0891 14.3303 22.8747 14.6803 22.7916C15.2906 22.6494 15.9381 22.8835 16.4325 23.2663C16.9269 23.6491 17.2966 24.1697 17.6575 24.6794L17.8194 24.9069V20.6129H17.8172Z" fill="#874D36"/>
<path d="M6.33064 6.33716C8.92501 6.33716 11.036 8.09153 11.036 10.2506V20.6631H1.62314V10.2506C1.62314 8.09153 3.73408 6.33716 6.33064 6.33716Z" fill="#4E342E"/>
<path d="M12.0247 20.604H4.18467C3.71874 20.604 3.32499 20.2606 3.26155 19.799L2.15905 11.7862C2.14671 11.696 2.15384 11.6041 2.17996 11.5169C2.20608 11.4296 2.25059 11.349 2.31049 11.2804C2.37039 11.2118 2.44429 11.1568 2.52721 11.1192C2.61014 11.0815 2.70016 11.0621 2.79124 11.0621H12.0247V20.604Z" fill="white"/>
<path d="M21.3391 5.4884H6.33063C6.33063 5.4884 11.4888 6.12059 11.4888 10.4715L11.515 21.514H26.0663C26.6503 21.514 27.1228 21.0415 27.1228 20.4575V11.2743C27.125 8.0784 24.535 5.4884 21.3391 5.4884Z" fill="#1976D2"/>
<path d="M18.2591 7.43964L16.4784 7.50089L13.8863 11.4778V8.25121C13.8863 6.52746 12.1363 5.48621 12.1363 5.48621H18.9525L18.9875 5.52121C19.7028 6.20152 19.2456 7.40464 18.2591 7.43964Z" fill="#0D47A1"/>
<path d="M16.2334 13.8294C17.2169 13.8294 18.0141 12.9323 18.0141 11.8256C18.0141 10.719 17.2169 9.8219 16.2334 9.8219C15.25 9.8219 14.4528 10.719 14.4528 11.8256C14.4528 12.9323 15.25 13.8294 16.2334 13.8294Z" fill="#0D47A1"/>
<path d="M14.6322 2.21156L14.6387 11.3028C14.6387 11.6091 14.8859 11.8563 15.1922 11.8563H16.31C16.6162 11.8563 16.8634 11.6091 16.8634 11.3028V0.875H15.9665C15.7911 0.875 15.6174 0.909587 15.4554 0.976782C15.2934 1.04398 15.1462 1.14246 15.0222 1.2666C14.8983 1.39074 14.8 1.5381 14.7331 1.70025C14.6662 1.86239 14.6319 2.03615 14.6322 2.21156Z" fill="#C62828"/>
<path d="M15.12 2.21156L15.1266 11.3028H16.9137V4.26344H19.9937C20.7047 4.26344 20.7878 3.955 20.7878 2.61188C20.7878 1.26875 20.7069 0.875 19.9959 0.875H16.4544C16.279 0.875 16.1053 0.909587 15.9432 0.976782C15.7812 1.04398 15.634 1.14246 15.5101 1.2666C15.3861 1.39074 15.2879 1.5381 15.2209 1.70025C15.154 1.86239 15.1197 2.03615 15.12 2.21156Z" fill="#F44336"/>
<path d="M16.2728 2.37997C16.2575 2.81529 15.9731 6.75716 15.9228 7.49654C15.8616 8.39122 15.3453 8.4831 15.3453 7.66935V2.3406C15.3475 1.47872 16.3056 1.43279 16.2728 2.37997Z" fill="#FF7555"/>
<path d="M16.0563 9.2838L16.0716 13.2891H15.1659C14.28 13.2891 13.5625 12.3922 13.5625 11.2854C13.5625 10.1785 14.28 9.28162 15.1659 9.28162C16.0519 9.28162 16.0563 9.2838 16.0563 9.2838Z" fill="#82AEC0"/>
<path d="M16.0563 13.2891C16.9418 13.2891 17.6597 12.392 17.6597 11.2854C17.6597 10.1787 16.9418 9.28162 16.0563 9.28162C15.1707 9.28162 14.4528 10.1787 14.4528 11.2854C14.4528 12.392 15.1707 13.2891 16.0563 13.2891Z" fill="#E0E0E0"/>
<path d="M15.0981 11.3444C15.1944 11.3926 15.3103 11.3401 15.3934 11.2701C15.6472 11.0579 15.7434 10.7079 15.9775 10.476C16.1831 10.2704 16.4959 10.0691 16.2509 9.76505C16.0737 9.5463 15.774 9.58349 15.54 9.68411C15.0215 9.90068 14.6103 11.0994 15.0981 11.3444Z" fill="white"/>
<path d="M6.33063 6.39403C8.90531 6.39403 11.0009 8.13528 11.0009 10.2768V20.6062H1.66031V10.2747C1.66031 8.13528 3.75594 6.39403 6.33063 6.39403ZM6.33063 5.4884C3.02094 5.4884 0.875 7.71747 0.875 10.4693V21.0459C0.875 21.3018 1.08281 21.5118 1.34094 21.5118H11.8606C12.1166 21.5118 12.3266 21.304 12.3266 21.0459V10.4693C12.3222 7.71747 9.64031 5.4884 6.33063 5.4884Z" fill="#4FC3F7"/>
<path d="M3.8675 20.0156C3.73844 19.9478 3.84563 19.8188 3.91782 19.7006L6.8425 14.606L7.41782 14.956L4.16282 19.8516C4.07969 19.9785 3.99657 20.0835 3.8675 20.0156Z" fill="#6FBFF0" stroke="#6FBFF0" stroke-width="0.25" stroke-miterlimit="10"/>
<path d="M8.72593 16.3909L2.6578 11.7315C2.58342 11.6812 2.51999 11.5893 2.59655 11.4975C2.6578 11.4231 2.71467 11.4625 2.82186 11.5259L8.70186 15.5772C8.85061 15.669 9.04311 15.6297 9.14593 15.4897L10.9003 13.114L10.8959 14.1793L9.41718 16.2662C9.34041 16.3723 9.22554 16.4446 9.09667 16.4678C8.96779 16.4911 8.83492 16.4635 8.72593 16.3909Z" fill="#6FBFF0" stroke="#6FBFF0" stroke-width="0.25" stroke-miterlimit="10"/>
</g>
<defs>
<clipPath id="clip0_79_87">
<rect width="28" height="28" fill="white"/>
</clipPath>
</defs>
</svg>
