<svg width="30" height="32" viewBox="0 0 30 32" fill="none" xmlns="http://www.w3.org/2000/svg">
<g clip-path="url(#clip0_4_96)">
<path fill-rule="evenodd" clip-rule="evenodd" d="M14.9174 32L27.6946 25.0224L29.8347 5.18925L14.9174 0L0 5.18925L2.14019 25.0224L14.9174 32ZM8.56925 8.10738C9.11706 8.06994 9.90225 7.95487 11.1331 6.49925C11.7103 5.81675 13.451 5.96844 14.2667 6.91563C17.4089 6.68225 21.7826 9.41181 22.1175 12.1388C21.8909 14.0567 19.3145 14.0066 14.3997 11.9879C9.14287 13.1719 9.47425 19.8347 13.8341 21.5811C12.7853 20.5514 12.3386 19.686 12.4891 18.9692C14.6705 21.5527 17.1553 22.5183 19.9391 21.8662C18.7117 21.9091 17.7396 21.5141 17.0079 20.6756C18.8896 20.6297 20.6659 19.7563 22.3387 18.0462C21.3731 18.8145 20.3626 19.1055 19.2929 18.9224C22.1904 16.6445 23.2143 13.9828 22.3674 10.9458C23.7684 12.5102 23.7441 14.7719 22.358 16.9501C22.9021 16.5271 23.5303 15.6142 24.2408 14.2219C24.5477 17.0436 23.4074 19.1869 20.8092 20.6548C21.6387 20.5783 22.7401 20.0322 24.1061 19.0145C21.1079 26.9684 9.59637 26.1312 6.65487 17.7466C4.38512 15.2983 6.50912 15.8842 6.08537 14.174C4.9725 11.8261 6.5615 11.8464 7.18188 10.7529C7.45106 10.0849 6.59281 8.27969 8.56925 8.10738ZM17.5352 10.1743C17.5352 9.84819 17.1797 9.64319 16.8967 9.80625C16.6139 9.96937 16.6139 10.3793 16.8967 10.5424C17.1797 10.7055 17.5352 10.5005 17.5352 10.1743Z" fill="white"/>
</g>
<defs>
<clipPath id="clip0_4_96">
<rect width="29.875" height="32" fill="white"/>
</clipPath>
</defs>
</svg>
