<svg width="30" height="32" viewBox="0 0 30 32" fill="none" xmlns="http://www.w3.org/2000/svg">
<path d="M13.3881 0.341243C13.7936 0.117483 14.2505 0 14.7152 0C15.1798 0 15.6367 0.117483 16.0422 0.341243C20.0833 2.59452 24.1248 4.84747 28.1665 7.10007C28.5466 7.31369 28.8632 7.62213 29.0844 7.99449C29.3057 8.36685 29.4239 8.79006 29.4272 9.22172V22.7837C29.4194 23.2313 29.2894 23.6684 29.051 24.0492C28.8126 24.43 28.4746 24.7404 28.0726 24.9477C24.0445 27.1889 20.0173 29.4311 15.9912 31.6743C15.578 31.8998 15.1111 32.0119 14.6391 31.999C14.1672 31.9861 13.7073 31.8485 13.3074 31.6007C12.1001 30.9096 10.8918 30.2202 9.6825 29.5325C9.41709 29.4138 9.17911 29.2427 8.98324 29.0298C9.13738 28.8283 9.413 28.7991 9.63656 28.7094C10.1327 28.5342 10.6112 28.3136 11.0657 28.0505C11.123 28.0172 11.1891 28.0015 11.2554 28.0054C11.3218 28.0094 11.3855 28.0328 11.4383 28.0727C12.4714 28.657 13.4943 29.2584 14.5304 29.8367C14.7519 29.9626 14.9755 29.7954 15.1643 29.6916C19.1169 27.4867 23.0709 25.2845 27.0263 23.0849C27.0968 23.0502 27.1551 22.9953 27.1935 22.9273C27.232 22.8594 27.2487 22.7816 27.2417 22.7041C27.2417 18.2318 27.2417 13.7588 27.2417 9.28518C27.2489 9.19815 27.2283 9.11108 27.1829 9.03612C27.1376 8.96117 27.0696 8.90208 26.9885 8.8671C22.9733 6.63599 18.9601 4.40386 14.9489 2.17073C14.8793 2.12374 14.7969 2.09859 14.7126 2.09859C14.6283 2.09859 14.5459 2.12374 14.4763 2.17073C10.461 4.40319 6.44819 6.63632 2.43772 8.87012C2.35634 8.9042 2.28794 8.96278 2.2423 9.0375C2.19665 9.11222 2.17609 9.19926 2.18354 9.28619C2.18354 13.7585 2.18354 18.2315 2.18354 22.7051C2.17658 22.7824 2.19379 22.86 2.23285 22.9274C2.2719 22.9947 2.33094 23.0487 2.402 23.0819C3.47318 23.681 4.5447 24.2784 5.61657 24.8741C5.91381 25.0554 6.24647 25.1729 6.59282 25.2187C6.93917 25.2645 7.29142 25.2377 7.62656 25.1401C7.91698 25.032 8.16707 24.8391 8.34346 24.5871C8.51984 24.3351 8.61412 24.036 8.6137 23.7297C8.6188 19.2829 8.6137 14.8361 8.6137 10.3903C8.61249 10.3432 8.62142 10.2963 8.63988 10.2527C8.65835 10.2092 8.68594 10.17 8.72084 10.1378C8.75575 10.1055 8.79717 10.0809 8.84239 10.0656C8.88762 10.0502 8.93562 10.0445 8.98324 10.0488C9.49365 10.0488 10.0132 10.0418 10.5277 10.0488C10.5775 10.0511 10.6262 10.0637 10.6708 10.0857C10.7153 10.1077 10.7547 10.1387 10.7864 10.1767C10.818 10.2147 10.8412 10.2588 10.8545 10.3062C10.8678 10.3535 10.8709 10.4032 10.8636 10.4518C10.8636 14.9268 10.8687 19.4018 10.8636 23.8758C10.8978 24.4836 10.7662 25.0894 10.4825 25.63C10.1989 26.1706 9.77347 26.6262 9.25069 26.9494C8.552 27.2708 7.78713 27.4272 7.01658 27.4064C6.24604 27.3856 5.49097 27.1881 4.81114 26.8295C3.63311 26.2493 2.50918 25.5652 1.35259 24.9436C0.951137 24.7369 0.613608 24.4272 0.375564 24.0471C0.13752 23.667 0.00777532 23.2305 0 22.7837L0 9.22172C0.00346926 8.78101 0.126492 8.34927 0.35628 7.97138C0.586068 7.59348 0.914231 7.28323 1.30665 7.07287C5.3355 4.83034 9.36264 2.58646 13.3881 0.341243Z" fill="white"/>
<path d="M16.9007 9.73313C18.6803 9.5058 20.4888 9.77888 22.1181 10.521C22.7085 10.8685 23.1967 11.3623 23.5342 11.9535C23.8718 12.5446 24.0469 13.2124 24.0424 13.8909C24.0194 13.9758 23.9662 14.0496 23.8925 14.0988C23.8188 14.1481 23.7295 14.1694 23.6412 14.1589C23.1308 14.1589 22.6204 14.166 22.1099 14.1589C22.012 14.1527 21.9199 14.1106 21.8518 14.0409C21.7836 13.9712 21.7443 13.8789 21.7414 13.7821C21.6837 13.4535 21.5542 13.1413 21.3618 12.8671C21.1695 12.5929 20.919 12.3634 20.6277 12.1944C19.6584 11.8145 18.6117 11.6667 17.5734 11.7632C16.8083 11.7395 16.0515 11.9254 15.3868 12.3001C15.1579 12.4753 14.9904 12.7168 14.9078 12.9908C14.8253 13.2647 14.8318 13.5573 14.9264 13.8275C15.0898 14.2113 15.5389 14.3312 15.9064 14.4491C18.0236 14.9951 20.2663 14.9407 22.3427 15.658C22.7886 15.7802 23.2002 16.0015 23.546 16.305C23.8917 16.6085 24.1625 16.9862 24.3374 17.409C24.5456 18.0089 24.5959 18.6512 24.4836 19.2756C24.3713 19.9 24.1 20.4859 23.6953 20.9784C22.9632 21.7284 22.0121 22.2342 20.9748 22.4251C19.6236 22.6959 18.2376 22.7541 16.868 22.5974C15.5536 22.5235 14.2933 22.0557 13.2553 21.2565C12.8435 20.8841 12.5201 20.4264 12.3084 19.9163C12.0966 19.4062 12.0017 18.8562 12.0304 18.3056C12.0396 18.2166 12.0843 18.1348 12.1545 18.0782C12.2247 18.0216 12.3147 17.9947 12.405 18.0034C12.9154 18.0034 13.4309 17.9984 13.9444 18.0034C13.9919 18.0023 14.0392 18.0106 14.0835 18.0277C14.1277 18.0447 14.1681 18.0703 14.2023 18.103C14.2365 18.1356 14.2638 18.1745 14.2826 18.2176C14.3014 18.2607 14.3114 18.3071 14.3119 18.354C14.3375 18.6669 14.4277 18.9712 14.5769 19.2485C14.7262 19.5257 14.9312 19.7698 15.1796 19.9659C16.2787 20.4996 17.5068 20.7201 18.7259 20.6026C19.7463 20.6783 20.7646 20.4313 21.6332 19.8974C21.8329 19.7048 21.9782 19.464 22.0549 19.199C22.1315 18.934 22.1367 18.6539 22.0701 18.3862C21.9456 17.9389 21.4709 17.7304 21.0636 17.5944C18.974 16.9415 16.7057 17.1783 14.6324 16.4408C14.1983 16.3155 13.7969 16.0987 13.4559 15.8055C13.1149 15.5122 12.8424 15.1495 12.6571 14.7422C12.4193 14.1343 12.3593 13.4727 12.4838 12.8327C12.6083 12.1928 12.9124 11.6002 13.3615 11.1224C14.3399 10.2701 15.5856 9.77598 16.8895 9.72306L16.9007 9.73313Z" fill="white"/>
</svg>
