<svg width="32" height="32" viewBox="0 0 32 32" fill="none" xmlns="http://www.w3.org/2000/svg">
<g clip-path="url(#clip0_6_160)">
<path fill-rule="evenodd" clip-rule="evenodd" d="M16.434 10.486C18.29 7.976 20.342 6 22.966 6C27.92 6 32 12.306 32.002 19.814C32.002 24.394 30.03 27.264 26.488 27.264C23.402 27.264 21.698 25.532 18.64 20.416L17.306 18.17L17.07 17.776C16.7221 17.1881 16.3688 16.6034 16.01 16.022L13.654 20.182C10.308 26.032 8.424 27.264 5.808 27.264C2.172 27.264 0 24.434 0 19.946C0 12.776 3.99 6 9.196 6C9.834 6 10.446 6.078 11.044 6.244C11.664 6.416 12.266 6.684 12.87 7.058C14.024 7.776 15.178 8.888 16.434 10.486ZM19.466 14.934C18.962 14.114 18.478 13.36 18.012 12.668L18 12.652C19.69 10.042 21.086 8.744 22.744 8.744C26.19 8.744 28.948 13.818 28.948 20.05C28.948 22.426 28.168 23.804 26.558 23.804C25.012 23.804 24.274 22.784 21.338 18.064L19.466 14.934ZM9.692 9.512C11.142 9.712 12.462 10.78 14.372 13.514C13.2699 15.2015 12.1799 16.8969 11.102 18.6C8.388 22.852 7.45 23.806 5.94 23.806C4.386 23.806 3.46 22.442 3.46 20.006C3.46 14.802 6.056 9.478 9.152 9.478C9.334 9.478 9.514 9.488 9.692 9.512Z" fill="white"/>
</g>
<defs>
<clipPath id="clip0_6_160">
<rect width="32" height="32" fill="white"/>
</clipPath>
</defs>
</svg>
