<svg width="32" height="32" viewBox="0 0 32 32" fill="none" xmlns="http://www.w3.org/2000/svg">
<g clip-path="url(#clip0_4_101)">
<path d="M11.428 31.2387C11.428 31.3386 11.4083 31.4376 11.37 31.53C11.3318 31.6224 11.2757 31.7063 11.205 31.777C11.1343 31.8477 11.0504 31.9038 10.958 31.942C10.8656 31.9803 10.7666 32 10.6667 32H3.048C2.8459 32 2.65208 31.9197 2.50918 31.7768C2.36628 31.6339 2.286 31.4401 2.286 31.238C2.286 31.0359 2.36628 30.8421 2.50918 30.6992C2.65208 30.5563 2.8459 30.476 3.048 30.476H10.6667C11.088 30.476 11.428 30.8173 11.428 31.2387ZM10.6667 27.4267H9.14266C8.94057 27.4267 8.74675 27.5069 8.60385 27.6499C8.46094 27.7928 8.38066 27.9866 8.38066 28.1887C8.38066 28.3908 8.46094 28.5846 8.60385 28.7275C8.74675 28.8704 8.94057 28.9507 9.14266 28.9507H10.6667C10.8688 28.9507 11.0626 28.8704 11.2055 28.7275C11.3484 28.5846 11.4287 28.3908 11.4287 28.1887C11.4287 27.9866 11.3484 27.7928 11.2055 27.6499C11.0626 27.5069 10.8688 27.4267 10.6667 27.4267ZM3.048 28.9507H6.09333C6.29542 28.9507 6.48924 28.8704 6.63214 28.7275C6.77505 28.5846 6.85533 28.3908 6.85533 28.1887C6.85533 27.9866 6.77505 27.7928 6.63214 27.6499C6.48924 27.5069 6.29542 27.4267 6.09333 27.4267H3.048C2.8459 27.4267 2.65208 27.5069 2.50918 27.6499C2.36628 27.7928 2.286 27.9866 2.286 28.1887C2.286 28.3908 2.36628 28.5846 2.50918 28.7275C2.65208 28.8704 2.8459 28.9507 3.048 28.9507ZM10.6667 24.3813H3.048C2.8459 24.3813 2.65208 24.4616 2.50918 24.6045C2.36628 24.7474 2.286 24.9412 2.286 25.1433C2.286 25.3454 2.36628 25.5392 2.50918 25.6822C2.65208 25.8251 2.8459 25.9053 3.048 25.9053H10.6667C10.8688 25.9053 11.0626 25.8251 11.2055 25.6822C11.3484 25.5392 11.4287 25.3454 11.4287 25.1433C11.4287 24.9412 11.3484 24.7474 11.2055 24.6045C11.0626 24.4616 10.8688 24.3813 10.6667 24.3813ZM21.3333 21.3333H7.61866C7.41657 21.3333 7.22275 21.4136 7.07985 21.5565C6.93694 21.6994 6.85666 21.8932 6.85666 22.0953C6.85666 22.2974 6.93694 22.4912 7.07985 22.6341C7.22275 22.7771 7.41657 22.8573 7.61866 22.8573H21.3333C21.5354 22.8573 21.7292 22.7771 21.8721 22.6341C22.015 22.4912 22.0953 22.2974 22.0953 22.0953C22.0953 21.8932 22.015 21.6994 21.8721 21.5565C21.7292 21.4136 21.5354 21.3333 21.3333 21.3333ZM3.048 22.8573H4.572C4.77409 22.8573 4.96791 22.7771 5.11081 22.6341C5.25371 22.4912 5.334 22.2974 5.334 22.0953C5.334 21.8932 5.25371 21.6994 5.11081 21.5565C4.96791 21.4136 4.77409 21.3333 4.572 21.3333H3.048C2.8459 21.3333 2.65208 21.4136 2.50918 21.5565C2.36628 21.6994 2.286 21.8932 2.286 22.0953C2.286 22.2974 2.36628 22.4912 2.50918 22.6341C2.65208 22.7771 2.8459 22.8573 3.048 22.8573ZM25.9053 18.2853H21.3333C21.1312 18.2853 20.9374 18.3656 20.7945 18.5085C20.6516 18.6514 20.5713 18.8452 20.5713 19.0473C20.5713 19.2494 20.6516 19.4432 20.7945 19.5861C20.9374 19.7291 21.1312 19.8093 21.3333 19.8093H25.9053C26.1074 19.8093 26.3012 19.7291 26.4441 19.5861C26.587 19.4432 26.6673 19.2494 26.6673 19.0473C26.6673 18.8452 26.587 18.6514 26.4441 18.5085C26.3012 18.3656 26.1074 18.2853 25.9053 18.2853ZM12.1907 19.8093H18.2853C18.4874 19.8093 18.6812 19.7291 18.8241 19.5861C18.967 19.4432 19.0473 19.2494 19.0473 19.0473C19.0473 18.8452 18.967 18.6514 18.8241 18.5085C18.6812 18.3656 18.4874 18.2853 18.2853 18.2853H12.1907C11.9886 18.2853 11.7948 18.3656 11.6518 18.5085C11.5089 18.6514 11.4287 18.8452 11.4287 19.0473C11.4287 19.2494 11.5089 19.4432 11.6518 19.5861C11.7948 19.7291 11.9886 19.8093 12.1907 19.8093ZM3.048 19.8093H9.14266C9.34476 19.8093 9.53858 19.7291 9.68148 19.5861C9.82438 19.4432 9.90466 19.2494 9.90466 19.0473C9.90466 18.8452 9.82438 18.6514 9.68148 18.5085C9.53858 18.3656 9.34476 18.2853 9.14266 18.2853H3.048C2.8459 18.2853 2.65208 18.3656 2.50918 18.5085C2.36628 18.6514 2.286 18.8452 2.286 19.0473C2.286 19.2494 2.36628 19.4432 2.50918 19.5861C2.65208 19.7291 2.8459 19.8093 3.048 19.8093ZM27.4267 15.24H15.24C15.0381 15.24 14.8444 15.3202 14.7017 15.463C14.5589 15.6058 14.4787 15.7994 14.4787 16.0013C14.4787 16.2033 14.5589 16.3969 14.7017 16.5397C14.8444 16.6825 15.0381 16.7627 15.24 16.7627H27.4293C27.6312 16.7627 27.8249 16.6825 27.9677 16.5397C28.1105 16.3969 28.1907 16.2033 28.1907 16.0013C28.1907 15.7994 28.1105 15.6058 27.9677 15.463C27.8249 15.3202 27.6312 15.24 27.4293 15.24H27.4267ZM12.952 16C12.952 15.7981 12.8718 15.6044 12.729 15.4617C12.5862 15.3189 12.3926 15.2387 12.1907 15.2387H7.61866C7.41674 15.2387 7.2231 15.3189 7.08032 15.4617C6.93754 15.6044 6.85733 15.7981 6.85733 16C6.85733 16.2019 6.93754 16.3956 7.08032 16.5383C7.2231 16.6811 7.41674 16.7613 7.61866 16.7613H12.1907C12.3926 16.7613 12.5862 16.6811 12.729 16.5383C12.8718 16.3956 12.952 16.2019 12.952 16ZM3.048 16.7613H4.572C4.77391 16.7613 4.96756 16.6811 5.11034 16.5383C5.25312 16.3956 5.33333 16.2019 5.33333 16C5.33333 15.7981 5.25312 15.6044 5.11034 15.4617C4.96756 15.3189 4.77391 15.2387 4.572 15.2387H3.048C2.84608 15.2387 2.65243 15.3189 2.50965 15.4617C2.36687 15.6044 2.28666 15.7981 2.28666 16C2.28666 16.2019 2.36687 16.3956 2.50965 16.5383C2.65243 16.6811 2.84608 16.7613 3.048 16.7613ZM28.952 12.1907H21.3333C21.1312 12.1907 20.9374 12.2709 20.7945 12.4139C20.6516 12.5568 20.5713 12.7506 20.5713 12.9527C20.5713 13.1548 20.6516 13.3486 20.7945 13.4915C20.9374 13.6344 21.1312 13.7147 21.3333 13.7147H28.952C29.1541 13.7147 29.3479 13.6344 29.4908 13.4915C29.6337 13.3486 29.714 13.1548 29.714 12.9527C29.714 12.7506 29.6337 12.5568 29.4908 12.4139C29.3479 12.2709 29.1541 12.1907 28.952 12.1907ZM3.048 13.7147H10.6667C10.8688 13.7147 11.0626 13.6344 11.2055 13.4915C11.3484 13.3486 11.4287 13.1548 11.4287 12.9527C11.4287 12.7506 11.3484 12.5568 11.2055 12.4139C11.0626 12.2709 10.8688 12.1907 10.6667 12.1907H3.048C2.8459 12.1907 2.65208 12.2709 2.50918 12.4139C2.36628 12.5568 2.286 12.7506 2.286 12.9527C2.286 13.1548 2.36628 13.3486 2.50918 13.4915C2.65208 13.6344 2.8459 13.7147 3.048 13.7147ZM20.572 9.90533C20.5718 10.0054 20.5914 10.1044 20.6296 10.1969C20.6678 10.2893 20.7239 10.3733 20.7946 10.4441C20.8653 10.5148 20.9493 10.5709 21.0418 10.6091C21.1342 10.6473 21.2333 10.6668 21.3333 10.6667H28.952C29.1541 10.6667 29.3479 10.5864 29.4908 10.4435C29.6337 10.3006 29.714 10.1068 29.714 9.90467C29.714 9.70257 29.6337 9.50875 29.4908 9.36585C29.3479 9.22295 29.1541 9.14267 28.952 9.14267H21.3333C21.2332 9.14267 21.1341 9.1624 21.0417 9.20075C20.9492 9.23909 20.8652 9.29529 20.7945 9.36613C20.7238 9.43696 20.6677 9.52105 20.6296 9.61357C20.5914 9.7061 20.5718 9.80524 20.572 9.90533ZM9.14266 9.14267C8.94057 9.14267 8.74675 9.22295 8.60385 9.36585C8.46094 9.50875 8.38066 9.70257 8.38066 9.90467C8.38066 10.1068 8.46094 10.3006 8.60385 10.4435C8.74675 10.5864 8.94057 10.6667 9.14266 10.6667H10.6667C10.8688 10.6667 11.0626 10.5864 11.2055 10.4435C11.3484 10.3006 11.4287 10.1068 11.4287 9.90467C11.4287 9.70257 11.3484 9.50875 11.2055 9.36585C11.0626 9.22295 10.8688 9.14267 10.6667 9.14267H9.14266ZM3.048 10.6667H6.09333C6.29542 10.6667 6.48924 10.5864 6.63214 10.4435C6.77505 10.3006 6.85533 10.1068 6.85533 9.90467C6.85533 9.70257 6.77505 9.50875 6.63214 9.36585C6.48924 9.22295 6.29542 9.14267 6.09333 9.14267H3.048C2.8459 9.14267 2.65208 9.22295 2.50918 9.36585C2.36628 9.50875 2.286 9.70257 2.286 9.90467C2.286 10.1068 2.36628 10.3006 2.50918 10.4435C2.65208 10.5864 2.8459 10.6667 3.048 10.6667ZM25.1427 6.85733C25.1427 7.27733 25.484 7.61867 25.9053 7.61867H27.428C27.6301 7.61867 27.8239 7.53838 27.9668 7.39548C28.1097 7.25258 28.19 7.05876 28.19 6.85667C28.19 6.65457 28.1097 6.46075 27.9668 6.31785C27.8239 6.17495 27.6301 6.09467 27.428 6.09467H25.9067C25.8065 6.09449 25.7072 6.1141 25.6146 6.15236C25.522 6.19063 25.4378 6.2468 25.367 6.31766C25.2961 6.38851 25.24 6.47266 25.2017 6.56527C25.1634 6.65788 25.1425 6.75713 25.1427 6.85733ZM23.6187 6.85733C23.6188 6.75724 23.5993 6.6581 23.5611 6.56557C23.5229 6.47305 23.4669 6.38897 23.3961 6.31813C23.3254 6.24729 23.2414 6.19109 23.149 6.15275C23.0565 6.1144 22.9574 6.09467 22.8573 6.09467H16.76C16.5579 6.09467 16.3641 6.17495 16.2212 6.31785C16.0783 6.46075 15.998 6.65457 15.998 6.85667C15.998 7.05876 16.0783 7.25258 16.2212 7.39548C16.3641 7.53838 16.5579 7.61867 16.76 7.61867H22.856C23.0579 7.61867 23.2516 7.53846 23.3943 7.39568C23.5371 7.2529 23.6173 7.05925 23.6173 6.85733H23.6187ZM3.048 7.61867H13.7147C13.9168 7.61867 14.1106 7.53838 14.2535 7.39548C14.3964 7.25258 14.4767 7.05876 14.4767 6.85667C14.4767 6.65457 14.3964 6.46075 14.2535 6.31785C14.1106 6.17495 13.9168 6.09467 13.7147 6.09467H3.048C2.8459 6.09467 2.65208 6.17495 2.50918 6.31785C2.36628 6.46075 2.286 6.65457 2.286 6.85667C2.286 7.05876 2.36628 7.25258 2.50918 7.39548C2.65208 7.53838 2.8459 7.61867 3.048 7.61867ZM9.90533 3.80933C9.90533 4.23067 10.2453 4.572 10.6667 4.572H25.9053C26.1074 4.572 26.3012 4.49172 26.4441 4.34882C26.587 4.20591 26.6673 4.0121 26.6673 3.81C26.6673 3.60791 26.587 3.41409 26.4441 3.27118C26.3012 3.12828 26.1074 3.048 25.9053 3.048H10.6667C10.4647 3.048 10.2711 3.12821 10.1283 3.27099C9.98554 3.41377 9.90533 3.60742 9.90533 3.80933ZM3.048 4.572H7.61866C7.82076 4.572 8.01458 4.49172 8.15748 4.34882C8.30038 4.20591 8.38066 4.0121 8.38066 3.81C8.38066 3.60791 8.30038 3.41409 8.15748 3.27118C8.01458 3.12828 7.82076 3.048 7.61866 3.048H3.048C2.8459 3.048 2.65208 3.12828 2.50918 3.27118C2.36628 3.41409 2.286 3.60791 2.286 3.81C2.286 4.0121 2.36628 4.20591 2.50918 4.34882C2.65208 4.49172 2.8459 4.572 3.048 4.572ZM3.048 1.524H21.3333C21.5354 1.524 21.7292 1.44372 21.8721 1.30082C22.015 1.15791 22.0953 0.964095 22.0953 0.762C22.0953 0.559905 22.015 0.366087 21.8721 0.223185C21.7292 0.0802819 21.5354 0 21.3333 0L3.048 0C2.8459 0 2.65208 0.0802819 2.50918 0.223185C2.36628 0.366087 2.286 0.559905 2.286 0.762C2.286 0.964095 2.36628 1.15791 2.50918 1.30082C2.65208 1.44372 2.8459 1.524 3.048 1.524Z" fill="white"/>
</g>
<defs>
<clipPath id="clip0_4_101">
<rect width="32" height="32" fill="white"/>
</clipPath>
</defs>
</svg>
