<svg width="27" height="32" viewBox="0 0 27 32" fill="none" xmlns="http://www.w3.org/2000/svg">
<g clip-path="url(#clip0_4_107)">
<path d="M23.8369 25.3679L9.48245 29.6134C9.04389 29.7432 8.62358 29.3639 8.71576 28.9214L13.8438 4.36312C13.9397 3.90362 14.5745 3.83093 14.7748 4.25625L24.2696 24.4184C24.4487 24.7991 24.2444 25.2476 23.8368 25.368L23.8369 25.3679ZM26.2984 24.3662L15.3048 1.02037C14.58 -0.335316 12.865 -0.286128 12.195 0.848497L0.271764 20.1604C-0.097611 20.7626 -0.0902986 21.5048 0.292764 22.0992L6.12108 31.1279C6.72201 31.8443 7.2777 32.1822 8.22683 31.9015L25.1446 26.8979C26.2717 26.5604 26.8148 25.4714 26.2984 24.3662Z" fill="white"/>
</g>
<defs>
<clipPath id="clip0_4_107">
<rect width="26.5" height="32" fill="white"/>
</clipPath>
</defs>
</svg>
