<svg width="32" height="30" viewBox="0 0 32 30" fill="none" xmlns="http://www.w3.org/2000/svg">
<path d="M16.9205 27.038C16.6361 26.7708 16.3393 26.5027 16.0558 26.2058C15.8292 26.4282 15.6168 26.6368 15.3921 26.8444C12.5866 29.4137 9.69473 30.4833 7.9805 29.4434C6.3222 28.4483 5.79977 25.5085 6.46347 21.81C6.53427 21.4091 6.61928 21.0082 6.71852 20.6073C6.42081 20.5142 6.13731 20.4286 5.85382 20.328C2.32389 19.048 0 16.9693 0 14.8897C0 12.8854 2.1684 10.9398 5.55515 9.69241C5.93441 9.55836 6.33452 9.42524 6.74602 9.30608C6.6512 8.91975 6.5763 8.54832 6.50519 8.18899C5.79598 4.43465 6.29186 1.43527 7.96438 0.425231C9.70706 -0.64438 12.5989 0.499704 15.503 3.18723C15.6728 3.35014 15.8434 3.52887 16.0274 3.70668C16.2966 3.43951 16.5517 3.17234 16.821 2.93496C19.5706 0.421508 22.305 -0.629486 23.9775 0.380548C25.7202 1.41944 26.2312 4.62734 25.4519 8.593C25.4092 8.84621 25.3571 9.08359 25.2964 9.33773C25.651 9.44199 26.0046 9.56022 26.3308 9.67937C29.7887 10.9268 32.0282 12.8724 31.9997 14.9213C31.9997 17.0149 29.6047 19.0797 25.9316 20.3569C25.7335 20.4165 25.5353 20.4909 25.3362 20.5496C25.4215 20.8465 25.4775 21.1435 25.5344 21.4404C26.2711 25.287 25.7041 28.4353 23.9898 29.4751C23.5396 29.7412 23.0219 29.8768 22.4965 29.8661C20.9255 29.8633 18.9306 28.8477 16.9205 27.038ZM19.6986 21.5875C18.8845 22.8308 17.9898 24.0214 17.0201 25.152C17.2893 25.4312 17.5586 25.6872 17.8279 25.9246C20.166 28.0331 22.3202 28.8207 23.3271 28.2119C23.6346 27.9518 23.8858 27.6339 24.066 27.2768C24.2461 26.9198 24.3514 26.5309 24.3757 26.1331C24.5803 24.6594 24.5226 23.162 24.2051 21.7076C24.1624 21.4404 24.1103 21.1733 24.0354 20.8912C22.6075 21.2193 21.1585 21.452 19.6986 21.5875V21.5875ZM7.82216 22.0632C7.2419 25.2283 7.66666 27.5872 8.67548 28.197C9.03289 28.3436 9.41877 28.4113 9.80579 28.3952C10.1928 28.3791 10.5715 28.2797 10.915 28.1039C12.2513 27.5525 13.4683 26.756 14.5009 25.7571C14.7132 25.5783 14.9114 25.3707 15.1247 25.1631C14.1336 24.0323 13.2153 22.8418 12.3751 21.5987C10.9207 21.4794 9.47642 21.2617 8.05256 20.9471C7.96438 21.3353 7.89327 21.7058 7.82216 22.0632ZM16.071 24.1419C16.6949 23.414 17.3178 22.6125 17.9417 21.7216C17.3178 21.7514 16.6664 21.7663 16.0141 21.7663C15.3618 21.7663 14.7531 21.7514 14.1434 21.7216C14.7806 22.5966 15.4187 23.414 16.07 24.1419H16.071ZM13.0938 9.64772C12.5553 10.4641 12.031 11.3234 11.5351 12.2319C11.0392 13.1228 10.5869 14.0286 10.1745 14.9315C10.6002 15.8224 11.0534 16.7282 11.5493 17.6498C12.0452 18.5407 12.5695 19.4185 13.108 20.248C14.0429 20.3075 15.0214 20.341 16.0131 20.341C17.0049 20.341 17.9967 20.3113 18.9467 20.2377C19.4568 19.4213 19.9811 18.5444 20.4779 17.6386C20.9748 16.7329 21.4412 15.8122 21.8527 14.9213C21.4412 14.0453 20.9738 13.1396 20.4779 12.2328C19.9821 11.3261 19.4577 10.4641 18.9334 9.64865C17.9853 9.57418 17.0058 9.5295 16.0141 9.5295C15.0223 9.5295 14.0439 9.57325 13.0938 9.64772ZM8.41759 19.5824C9.38995 19.8004 10.3741 19.9642 11.3654 20.0729C11.025 19.5088 10.6855 18.9438 10.3594 18.3498C10.0474 17.7708 9.7355 17.1918 9.45201 16.6128C9.04147 17.6219 8.70108 18.6189 8.41759 19.5824ZM21.6678 18.3349C21.3417 18.9289 21.0155 19.493 20.6903 20.0432C21.6964 19.9194 22.6948 19.741 23.6808 19.5088C23.3729 18.5063 23.0134 17.5199 22.6037 16.5532C22.3059 17.1471 21.994 17.741 21.6678 18.3349ZM5.99414 11.058C3.10326 12.1277 1.36058 13.6851 1.36058 14.9046C1.4157 15.2969 1.54918 15.6747 1.75338 16.0162C1.95758 16.3577 2.22847 16.6563 2.5505 16.8948C3.65658 17.8081 4.92498 18.5128 6.29186 18.9735C6.54691 19.0666 6.81618 19.1374 7.08545 19.2267C7.52077 17.766 8.04606 16.3326 8.65842 14.9343C8.04489 13.5601 7.52418 12.1476 7.09967 10.7062C6.71726 10.8067 6.34875 10.924 5.99414 11.058ZM23.383 14.9046C24.0119 16.285 24.5503 17.7035 24.9949 19.1513C25.1798 19.0918 25.3637 19.0322 25.5334 18.9726C28.6936 17.8741 30.6534 16.1957 30.6638 14.8887C30.6638 13.6711 28.85 12.096 25.888 11.0273C25.5903 10.924 25.2651 10.8197 24.9399 10.7155C24.5105 12.1424 23.9906 13.5415 23.383 14.9046V14.9046ZM21.6546 11.4891C21.9807 12.083 22.2927 12.6629 22.5752 13.242C22.969 12.2956 23.3095 11.3288 23.5954 10.3459C22.6328 10.1163 21.6583 9.93789 20.6761 9.81156C21.0165 10.3599 21.3417 10.91 21.6536 11.4891H21.6546ZM8.43181 10.3338C8.71625 11.2843 9.05569 12.2496 9.45201 13.2438C9.73645 12.6648 10.0474 12.0858 10.3594 11.5067C10.6713 10.9277 10.9965 10.3636 11.3369 9.81342C10.3167 9.94468 9.3534 10.1225 8.43181 10.3338ZM17.7141 4.02225C17.4733 4.24474 17.2324 4.48212 16.9907 4.72043C17.9748 5.83704 18.8793 7.019 19.6976 8.25788C21.1398 8.39456 22.5701 8.63287 23.9775 8.97095C24.0344 8.74847 24.0723 8.52505 24.1197 8.30256C24.7834 4.88707 24.3748 2.27308 23.2977 1.62052C23.0613 1.49023 22.7931 1.42585 22.5221 1.43433C21.3644 1.42875 19.5876 2.31404 17.7141 4.01946V4.02225ZM8.64419 1.65775C7.63822 2.26656 7.24095 4.70182 7.83638 7.90972C7.90749 8.25136 7.9786 8.59207 8.06298 8.94861C9.47227 8.62296 10.9021 8.38972 12.3429 8.25043C13.1642 7.01 14.0735 5.82792 15.0641 4.71299C14.9086 4.54915 14.7379 4.40113 14.5824 4.25219C12.6103 2.42109 10.714 1.45481 9.47571 1.45481C9.1847 1.44507 8.89669 1.51536 8.64419 1.65775ZM17.9123 8.13221C17.3278 7.30195 16.6973 6.50389 16.0236 5.74164C15.3864 6.46868 14.7483 7.27112 14.1273 8.13221C14.7512 8.10242 15.3741 8.08752 16.0122 8.08752C16.6503 8.08752 17.2893 8.09962 17.9132 8.13221H17.9123ZM13.1791 14.9641C13.1659 14.5825 13.2294 14.2019 13.3662 13.8444C13.5029 13.4869 13.7102 13.1594 13.9761 12.8807C14.2421 12.602 14.5614 12.3775 14.9158 12.2202C15.2702 12.0628 15.6528 11.9757 16.0416 11.9638C16.826 11.9901 17.5679 12.3206 18.1045 12.8831C18.641 13.4455 18.9286 14.1939 18.904 14.9641C18.9293 15.735 18.642 16.4843 18.1051 17.0473C17.5683 17.6104 16.8258 17.9412 16.0406 17.9672C15.6516 17.9553 15.2689 17.8681 14.9143 17.7106C14.5597 17.5531 14.2404 17.3284 13.9745 17.0493C13.7086 16.7703 13.5015 16.4424 13.365 16.0846C13.2285 15.7268 13.1654 15.346 13.1791 14.9641V14.9641Z" fill="white"/>
</svg>
