<svg width="32" height="26" viewBox="0 0 32 26" fill="none" xmlns="http://www.w3.org/2000/svg">
<path d="M15.092 18.946C15.077 18.976 15.062 19 15.092 18.946ZM27.5485 14.596C26.5429 14.5957 25.5506 14.8266 24.6485 15.271C24.3535 14.676 24.0485 14.156 23.9985 13.766C23.9385 13.311 23.8735 13.041 23.9435 12.501C24.0135 11.961 24.3285 11.196 24.3235 11.141C24.3185 11.086 24.2535 10.811 23.6085 10.806C22.9635 10.801 22.4085 10.931 22.344 11.101C22.2301 11.4117 22.1415 11.731 22.079 12.056C21.964 12.641 20.7895 14.731 20.1245 15.821C19.9045 15.396 19.7195 15.021 19.6795 14.721C19.6195 14.266 19.5545 13.996 19.6245 13.456C19.6945 12.916 20.0095 12.151 20.0045 12.096C19.9995 12.041 19.9345 11.766 19.29 11.761C18.6455 11.756 18.09 11.886 18.025 12.056C17.96 12.226 17.89 12.626 17.76 13.011C17.63 13.396 16.0655 16.876 15.656 17.781C15.446 18.241 15.266 18.611 15.136 18.861C15.116 18.901 15.101 18.926 15.091 18.946C15.106 18.921 15.116 18.896 15.116 18.906C15.006 19.121 14.941 19.241 14.941 19.241V19.246C14.856 19.406 14.761 19.551 14.716 19.551C14.686 19.551 14.621 19.131 14.731 18.556C14.966 17.346 15.521 15.466 15.516 15.401C15.511 15.366 15.621 15.041 15.151 14.866C14.696 14.701 14.531 14.976 14.491 14.976C14.451 14.976 14.421 15.076 14.421 15.076C14.421 15.076 14.926 12.956 13.4515 12.956C12.5315 12.956 11.2515 13.966 10.6225 14.881C10.2275 15.096 9.3725 15.561 8.4725 16.056C8.1275 16.246 7.7725 16.441 7.4375 16.626C7.4125 16.601 7.3925 16.576 7.3675 16.551C5.578 14.641 2.274 13.291 2.414 10.726C2.464 9.79099 2.789 7.33599 8.76751 4.35599C13.6675 1.91599 17.585 2.58599 18.2595 4.07599C19.2295 6.20099 16.165 10.156 11.0765 10.726C9.137 10.941 8.1175 10.191 7.8625 9.91099C7.5975 9.61599 7.5575 9.60099 7.4575 9.65599C7.2925 9.74599 7.3975 10.006 7.4575 10.161C7.6075 10.556 8.2325 11.256 9.297 11.606C10.232 11.911 12.506 12.081 15.2555 11.016C18.3445 9.82599 20.749 6.51099 20.044 3.73599C19.326 0.915989 14.65 -0.00901076 10.2285 1.56099C7.59401 2.49599 4.74501 3.96599 2.6955 5.88099C0.261005 8.16099 -0.128495 10.146 0.031505 10.976C0.601005 13.921 4.66001 15.841 6.28451 17.261C6.20451 17.306 6.12951 17.346 6.05951 17.386C5.24501 17.791 2.15051 19.411 1.37601 21.121C0.501005 23.061 1.52101 24.451 2.19051 24.641C4.28001 25.221 6.4195 24.176 7.569 22.461C8.7185 20.746 8.579 18.506 8.049 17.486C8.044 17.471 8.034 17.461 8.029 17.446C8.239 17.321 8.454 17.196 8.669 17.071C9.0835 16.826 9.4885 16.601 9.8435 16.406C9.6435 16.946 9.4985 17.596 9.4235 18.536C9.3335 19.636 9.78851 21.061 10.3785 21.621C10.6385 21.866 10.953 21.871 11.148 21.871C11.838 21.871 12.148 21.301 12.4925 20.621C12.9175 19.791 13.2925 18.826 13.2925 18.826C13.2925 18.826 12.8225 21.436 14.1075 21.436C14.577 21.436 15.047 20.831 15.2575 20.521V20.526C15.2575 20.526 15.2675 20.506 15.2925 20.466C15.3425 20.391 15.3675 20.346 15.3675 20.346V20.331C15.5575 20.006 15.9725 19.261 16.597 18.031C17.407 16.441 18.1815 14.456 18.1815 14.456C18.2563 14.8923 18.3599 15.3233 18.4915 15.746C18.6315 16.221 18.9265 16.741 19.1615 17.246C18.9715 17.506 18.8565 17.656 18.8565 17.656C18.8569 17.6598 18.8587 17.6634 18.8615 17.666C18.7115 17.866 18.5415 18.081 18.3665 18.291C17.727 19.051 16.9665 19.921 16.8665 20.171C16.7465 20.466 16.7765 20.686 17.0065 20.856C17.1765 20.986 17.4765 21.006 17.791 20.981C18.366 20.941 18.771 20.801 18.966 20.711C19.3255 20.5821 19.6653 20.4037 19.9755 20.181C20.6005 19.721 20.9805 19.061 20.9455 18.191C20.9255 17.711 20.7705 17.231 20.5805 16.781C20.6355 16.701 20.6955 16.616 20.7505 16.531C21.74 15.086 22.505 13.5 22.505 13.5C22.5798 13.9363 22.6834 14.3673 22.815 14.79C22.935 15.195 23.1695 15.64 23.3845 16.075C22.455 16.83 21.88 17.705 21.68 18.28C21.31 19.345 21.6 19.825 22.145 19.935C22.39 19.985 22.74 19.87 23 19.76C23.3861 19.6314 23.7502 19.4442 24.0795 19.205C24.7045 18.745 25.309 18.1 25.269 17.225C25.254 16.83 25.144 16.435 24.999 16.055C25.784 15.725 26.8035 15.545 28.1035 15.695C30.8875 16.02 31.4325 17.76 31.3275 18.485C31.2225 19.21 30.6375 19.615 30.4425 19.735C30.2475 19.855 30.1875 19.9 30.2025 19.99C30.2275 20.12 30.3175 20.115 30.4825 20.085C30.7125 20.045 31.942 19.495 31.997 18.15C32.077 16.45 30.4425 14.58 27.547 14.595L27.5485 14.596ZM6.08951 21.831C5.17001 22.836 3.88001 23.216 3.32551 22.896C2.73051 22.55 2.9655 21.071 4.10001 20C4.79001 19.35 5.67951 18.75 6.26951 18.38C6.40451 18.3 6.5995 18.18 6.8395 18.035C6.8795 18.01 6.8995 18 6.8995 18C6.9445 17.97 6.9945 17.945 7.0445 17.915C7.459 19.435 7.05951 20.775 6.08951 21.83V21.831ZM12.8075 17.261C12.4875 18.046 11.813 20.046 11.403 19.941C11.053 19.851 10.838 18.326 11.333 16.826C11.583 16.071 12.113 15.171 12.428 14.821C12.9325 14.256 13.4875 14.076 13.6175 14.301C13.7925 14.596 13.0075 16.771 12.8075 17.261ZM18.3575 19.911C18.2225 19.981 18.0975 20.026 18.0375 19.991C17.9925 19.966 18.0925 19.871 18.0925 19.871C18.0925 19.871 18.7875 19.126 19.0625 18.786C19.2225 18.586 19.4075 18.351 19.607 18.091C19.607 18.116 19.612 18.141 19.612 18.171C19.6055 19.066 18.746 19.671 18.356 19.911H18.3575ZM22.6365 18.936C22.5365 18.866 22.5515 18.631 22.8865 17.901C23.0165 17.616 23.316 17.136 23.8365 16.676C23.8954 16.8501 23.9275 17.0322 23.9315 17.216C23.9265 18.341 23.1215 18.761 22.637 18.936H22.6365Z" fill="white"/>
</svg>
