<svg width="32" height="32" viewBox="0 0 32 32" fill="none" xmlns="http://www.w3.org/2000/svg">
<g clip-path="url(#clip0_4_87)">
<path d="M21.6187 9.01599L21.5187 9.53732C21.364 10.5253 21.42 10.808 21.844 11.1747L22.2533 11.5133L21.8293 13.404C21.576 14.532 21.2653 15.4773 21.068 15.788C20.8987 16.056 20.7013 16.4507 20.6587 16.6627C20.588 16.916 20.348 17.1707 19.9813 17.396C19.6573 17.58 19.0213 18.0733 18.5707 18.4693C18.2107 18.7933 17.9627 18.992 17.828 19.0773L17.388 19.4253C17.2748 19.5931 17.1897 19.7782 17.136 19.9733C17.1053 20.116 17.1227 20.2107 17.168 20.28C17.212 20.3467 17.288 20.3933 17.392 20.4227C17.5151 20.4515 17.6418 20.4618 17.768 20.4533C18.0534 20.4338 18.3359 20.3838 18.6107 20.304C18.704 20.2787 18.7773 20.2547 18.8413 20.2333C18.94 20.112 19.168 19.8827 19.572 19.484C20.644 18.4267 21.0533 17.848 20.6307 18.004C20.4747 18.06 20.5453 17.9187 20.8133 17.636C21.3787 17.0853 21.7027 16.2533 22.38 13.644C22.916 11.584 22.916 11.5547 23.3107 11.5547C23.496 11.5547 24.02 11.5867 24.02 11.5867V9.01599H22.8173H21.6187ZM26.7373 13.236C26.652 13.236 26.5107 13.364 26.4267 13.5053C26.272 13.7587 26.4547 13.9133 28.7827 15.3667C30.1653 16.2427 31.28 16.9893 31.252 17.0467C31.224 17.088 30.0947 17.8227 28.7413 18.6693C26.2853 20.192 26.272 20.2067 26.4973 20.5173C26.78 20.884 26.4973 21.0107 29.6853 19.0213L32 17.54V16.4253L29.4173 14.8307C28.0213 13.956 26.808 13.2507 26.7373 13.236ZM5.29067 13.392C5.22 13.392 4.00667 14.112 2.61067 14.972L0 16.5667V17.6813L2.596 19.304C4.036 20.192 5.24933 20.9267 5.30533 20.9267C5.36133 20.9267 5.47467 20.7987 5.588 20.644C5.75733 20.376 5.61467 20.2627 3.23067 18.7533C0.96 17.328 0.72 17.1307 0.946667 16.976C1.088 16.8773 2.16 16.2133 3.31733 15.4947C5.956 13.872 5.81467 13.984 5.60267 13.6453C5.51867 13.5053 5.376 13.3787 5.292 13.392H5.29067ZM16.8693 13.4227C16.48 13.42 15.6427 14.0133 13.136 16.06C13.028 16.3173 13.0187 16.4947 13.068 16.6093C13.1 16.688 13.1587 16.7427 13.24 16.7827C13.32 16.8227 13.424 16.8467 13.5387 16.856C13.7667 16.876 14.036 16.84 14.2533 16.7973L14.4 16.764C14.4502 16.6967 14.5161 16.6427 14.592 16.6067C14.7467 16.5213 15.396 15.9293 16.0453 15.2947C17.188 14.1373 17.456 13.6147 16.9907 13.4453C16.9525 13.4301 16.9104 13.4224 16.8693 13.4227ZM19.7973 14.2267C19.4547 14.236 18.8373 14.6333 17.78 15.4773C17.2493 15.908 16.9133 16.14 16.7333 16.188L16.0347 16.74C15.772 17.22 15.7333 17.5173 15.8027 17.6813C15.82 17.7218 15.8452 17.7584 15.8768 17.7891C15.9084 17.8197 15.9457 17.8438 15.9867 17.86C16.0885 17.9002 16.1971 17.9206 16.3067 17.92C16.5684 17.9172 16.8285 17.8791 17.08 17.8067C17.2111 17.7715 17.3405 17.7306 17.468 17.684L17.5067 17.668L17.5773 17.6307C17.7107 17.4587 18.0173 17.1347 18.4013 16.7613C19.6147 15.5907 20.2347 14.7587 20.108 14.448C20.0507 14.2973 19.952 14.2213 19.7973 14.2267ZM16.5653 15.6667C16.4667 15.6773 16.2453 15.848 15.8467 16.1973C15.2707 16.7067 14.6427 17 14.4253 16.8693C14.3748 16.8807 14.3242 16.8914 14.2733 16.9013C14.052 16.9453 13.776 16.9813 13.5293 16.9613C13.4131 16.9543 13.2992 16.9258 13.1933 16.8773C13.0935 16.8317 13.0138 16.751 12.9693 16.6507C12.92 16.5307 12.92 16.3813 12.976 16.1907L12.1093 16.9027L10.148 18.5253V21.156L16.5747 16.0933C16.5734 16.0379 16.5806 15.9826 16.596 15.9293C16.6453 15.7507 16.6427 15.66 16.5653 15.668V15.6667ZM19.3307 16.5187C19.2333 16.5187 19.0707 16.656 18.8107 16.932C18.4573 17.3093 17.9013 17.6747 17.6067 17.7493L17.5613 17.7733C17.513 17.7933 17.464 17.812 17.4147 17.8293C17.3347 17.856 17.2307 17.888 17.1107 17.92C16.8707 17.9853 16.572 18.0453 16.3053 18.0387C16.1796 18.0385 16.0551 18.014 15.9387 17.9667C15.8289 17.9214 15.741 17.8354 15.6933 17.7267C15.616 17.5413 15.6467 17.2813 15.816 16.912L10.1467 21.3773V22.984H12.6373L17.92 18.8347C18.0573 18.6827 18.264 18.4747 18.5427 18.2147C19.2893 17.5227 19.4587 17.284 19.4587 16.9307C19.4587 16.656 19.428 16.5173 19.3307 16.5173V16.5187ZM20.588 19.1187L20.136 19.5693C19.8827 19.8093 19.4307 20.1053 19.1213 20.232L19.06 20.2587L19.056 20.2653L19.0427 20.2787C19.0307 20.288 19.0253 20.2893 19.016 20.2933C18.8925 20.3401 18.7671 20.3814 18.64 20.4173C18.3575 20.4996 18.0669 20.551 17.7733 20.5707C17.6345 20.5796 17.4952 20.5674 17.36 20.5347C17.2427 20.5088 17.1391 20.4404 17.0693 20.3427C17.0053 20.244 16.9867 20.112 17.0227 19.9493C17.0513 19.8335 17.0938 19.7216 17.1493 19.616L12.8867 22.984H18.556L19.2333 22.208C20.164 21.1227 20.588 20.3467 20.588 19.6827V19.1187Z" fill="white"/>
</g>
<defs>
<clipPath id="clip0_4_87">
<rect width="32" height="32" fill="white"/>
</clipPath>
</defs>
</svg>
