<svg width="32" height="22" viewBox="0 0 32 22" fill="none" xmlns="http://www.w3.org/2000/svg">
<path d="M25.9651 0.0722595C25.5592 0.0272831 25.0196 0.00158705 24.5448 6.63361e-05C24.2599 -0.000801935 23.998 0.00680546 23.8025 0.0257139C22.2743 0.161412 20.8468 0.8436 19.8698 1.90515C19.3802 2.4369 18.9368 3.19952 18.7202 3.8822C18.6234 4.18708 18.5662 4.36603 18.5324 4.54949C18.4829 4.81874 18.4838 5.09771 18.4846 5.79872C18.4858 7.30443 18.5605 7.67716 19.0617 8.67853C19.5656 9.68547 20.3334 10.5081 21.4412 11.2276C21.9267 11.543 23.17 12.1767 24.1853 12.6262C26.3954 13.6047 27.0944 14.0563 27.4189 14.7145L27.5528 14.9861V15.5554C27.5528 16.1045 27.5507 16.1328 27.4414 16.3592C27.1921 16.8832 26.6038 17.3121 25.8503 17.5194C25.5654 17.5976 25.4347 17.6086 24.7978 17.6088C24.1745 17.6088 24.0233 17.5958 23.7376 17.523C23.2388 17.3942 22.8187 17.2156 22.4902 16.9932C22.088 16.7209 21.2969 15.9049 20.9751 15.4301C20.8331 15.2204 20.6907 15.0488 20.6587 15.0488C20.6058 15.0488 17.8785 16.6423 17.4026 16.9513C17.2421 17.0556 17.2016 17.103 17.2016 17.1865C17.2016 17.3597 17.8388 18.3437 18.338 18.9416C19.3547 20.1598 21.3938 21.2342 23.2001 21.503C23.914 21.6093 25.1003 21.6437 25.929 21.5813C26.4718 21.5407 27.0206 21.4351 27.6104 21.2584C29.744 20.6188 31.1996 19.26 31.739 17.4042C31.959 16.6472 32.0478 15.7161 31.9751 14.9305C31.8262 13.3188 31.3415 12.1793 30.3847 11.1924C29.4962 10.276 28.2763 9.53751 25.869 8.45869C23.7818 7.52321 23.2372 7.15995 22.9363 6.50285C22.6766 5.93562 22.7259 5.15482 23.0527 4.66968C23.4349 4.10181 24.2155 3.82147 25.0857 3.93925C25.8949 4.04854 26.4183 4.37628 26.9309 5.09436C27.1971 5.4673 27.3818 5.66151 27.4704 5.66151C27.5578 5.66151 27.9343 5.42403 29.1028 4.63116C30.2924 3.82406 30.6665 3.55014 30.6921 3.46757C30.7319 3.3396 30.5453 3.04037 30 2.35656C28.905 0.983821 27.6178 0.255018 25.9651 0.0722595Z" fill="white"/>
<path d="M16.0525 0.2622C16.0254 0.244818 14.3377 0.234408 11.3943 0.232886C10.4132 0.232266 9.2926 0.232848 8.04733 0.23413C1.58886 0.240642 0.0899519 0.251624 0.0495394 0.294212C0.0102118 0.3344 0 0.739014 0 2.2498L0 4.15467L5.87401 4.17623L5.87473 12.6734C5.87497 17.3468 5.88536 21.2101 5.89962 21.2585L5.92166 21.3467H8.05612C9.9671 21.3467 10.193 21.3422 10.2138 21.2849C10.2265 21.2508 10.2358 17.3876 10.2358 12.6998V4.17671L16.1098 4.15491V2.22722C16.1098 0.556272 16.1035 0.294487 16.0525 0.2622Z" fill="white"/>
</svg>
