<svg width="24" height="24" viewBox="0 0 24 24" fill="none" xmlns="http://www.w3.org/2000/svg">
<path d="M12 0C18.6276 0 24 5.3724 24 12C24 18.6276 18.6276 24 12 24C9.87934 24.0034 7.796 23.4422 5.96401 22.374L0.00481688 24L1.62722 18.0384C0.558128 16.2058 -0.00352605 14.1216 1.66563e-05 12C1.66563e-05 5.3724 5.37241 0 12 0ZM7.91041 6.36L7.67041 6.3696C7.51504 6.37906 7.36319 6.41988 7.22401 6.4896C7.09384 6.56331 6.97501 6.65547 6.87121 6.7632C6.72721 6.8988 6.64561 7.0164 6.55801 7.1304C6.11416 7.70748 5.87518 8.41597 5.87881 9.14399C5.88121 9.73199 6.03481 10.3044 6.27481 10.8396C6.76561 11.922 7.57321 13.068 8.63881 14.13C8.89561 14.3856 9.14761 14.6424 9.41881 14.8812C10.7429 16.0469 12.3207 16.8876 14.0268 17.3364L14.7084 17.4408C14.9304 17.4528 15.1524 17.436 15.3756 17.4252C15.7251 17.4071 16.0663 17.3125 16.3752 17.148C16.5324 17.067 16.6857 16.979 16.8348 16.884C16.8348 16.884 16.8864 16.8504 16.9848 16.776C17.1468 16.656 17.2464 16.5708 17.3808 16.4304C17.4804 16.3272 17.5668 16.206 17.6328 16.068C17.7264 15.8724 17.82 15.4992 17.8584 15.1884C17.8872 14.9508 17.8788 14.8212 17.8752 14.7408C17.8704 14.6124 17.7636 14.4792 17.6472 14.4228L16.9488 14.1096C16.9488 14.1096 15.9048 13.6548 15.2664 13.3644C15.1996 13.3352 15.128 13.3185 15.0552 13.3152C14.9731 13.3068 14.8901 13.316 14.8119 13.3423C14.7337 13.3686 14.662 13.4113 14.6016 13.4676C14.5956 13.4652 14.5152 13.5336 13.6476 14.5848C13.5978 14.6517 13.5292 14.7023 13.4506 14.7301C13.3719 14.7578 13.2868 14.7616 13.206 14.7408C13.1278 14.7198 13.0512 14.6934 12.9768 14.6616C12.828 14.5992 12.7764 14.5752 12.6744 14.532C11.9857 14.2314 11.348 13.8254 10.7844 13.3284C10.6332 13.1964 10.4928 13.0524 10.3488 12.9132C9.87671 12.4611 9.46528 11.9496 9.12481 11.3916L9.05401 11.2776C9.00316 11.201 8.96204 11.1184 8.93161 11.0316C8.88601 10.8552 9.00481 10.7136 9.00481 10.7136C9.00481 10.7136 9.29641 10.3944 9.43201 10.2216C9.56401 10.0536 9.67561 9.89039 9.74761 9.77399C9.88921 9.54599 9.93361 9.31199 9.85921 9.13079C9.52321 8.30999 9.17521 7.49279 8.81761 6.6816C8.74681 6.5208 8.53681 6.4056 8.34601 6.3828C8.28121 6.3756 8.21641 6.3684 8.15161 6.3636C7.99046 6.35559 7.82897 6.35719 7.66801 6.3684L7.90921 6.3588L7.91041 6.36Z" fill="url(#paint0_linear_4_21)"/>
<defs>
<linearGradient id="paint0_linear_4_21" x1="16" y1="5.5" x2="-7.00355e-07" y2="25" gradientUnits="userSpaceOnUse">
<stop stop-color="#25D366" stop-opacity="0.83"/>
<stop offset="0.9999" stop-color="#25D366"/>
<stop offset="1" stop-color="#25D366" stop-opacity="0"/>
</linearGradient>
</defs>
</svg>
